<svg width="13" height="11" viewBox="0 0 13 11" fill="none" xmlns="http://www.w3.org/2000/svg">
<mask id="path-1-inside-1_13_67" fill="white">
<path d="M2.80881 0.0203433C2.79051 0.0200653 2.77243 0.0236491 2.75621 0.0307719C2.73998 0.0378946 2.72612 0.0483325 2.71587 0.061145C2.70562 0.0739575 2.69931 0.088742 2.6975 0.104166C2.69568 0.119591 2.69843 0.13517 2.70549 0.149501L2.76823 0.276849L3.87853 2.5026C3.88608 2.51774 3.89819 2.53095 3.91364 2.54089C3.92909 2.55084 3.94735 2.55717 3.96657 2.55925C3.98579 2.56134 4.0053 2.5591 4.02314 2.55276C4.04097 2.54643 4.05651 2.53622 4.06818 2.52317L6.15293 0.194617C6.1653 0.180821 6.17288 0.164365 6.17481 0.147091C6.17675 0.129817 6.17297 0.112409 6.16389 0.0968158C6.15481 0.081223 6.1408 0.0680621 6.12342 0.0588078C6.10604 0.0495535 6.08599 0.0445715 6.0655 0.0444201L2.80881 0.0203433ZM11.0302 0.690074L9.87927 2.93346C9.87203 2.94763 9.86906 2.9631 9.87062 2.97851C9.87218 2.99391 9.87822 3.00877 9.88821 3.02174C9.89819 3.03471 9.91181 3.04539 9.92784 3.05283C9.94387 3.06027 9.96181 3.06423 9.98005 3.06436L12.7657 3.08496C12.7853 3.08511 12.8047 3.0808 12.8217 3.07249C12.8387 3.06417 12.8527 3.05214 12.8624 3.03765C12.872 3.02316 12.8769 3.00673 12.8765 2.99007C12.8762 2.97341 12.8705 2.95712 12.8602 2.94288L11.2253 0.679131C11.2147 0.664556 11.1996 0.652695 11.1817 0.644835C11.1638 0.636974 11.1437 0.633415 11.1236 0.634542C11.1035 0.63567 11.0841 0.641442 11.0677 0.651231C11.0512 0.661021 11.0383 0.674454 11.0302 0.690074ZM1.79276 0.610331L0.133539 2.84879C0.123085 2.86287 0.117277 2.87908 0.116714 2.89574C0.116152 2.91239 0.120856 2.92889 0.13034 2.94352C0.139824 2.95816 0.153743 2.97039 0.170655 2.97896C0.187567 2.98753 0.206856 2.99212 0.226526 2.99225L3.01214 3.01285C3.0304 3.01297 3.04839 3.00924 3.06449 3.00201C3.0806 2.99478 3.09432 2.98427 3.10442 2.97142C3.11452 2.95858 3.12069 2.94379 3.12238 2.9284C3.12407 2.913 3.12122 2.89748 3.11408 2.88321L1.98576 0.624143C1.97768 0.608794 1.96489 0.595553 1.94872 0.585809C1.93255 0.576065 1.9136 0.570178 1.89386 0.568766C1.87412 0.567353 1.85432 0.570467 1.83653 0.57778C1.81874 0.585094 1.80362 0.596337 1.79276 0.610331ZM6.8383 0.0501334C6.82832 0.0500049 6.8185 0.0522453 6.80997 0.0566012C6.80143 0.0609572 6.79451 0.067255 6.78999 0.0747824C6.78547 0.0823098 6.78354 0.0907666 6.7844 0.0991964C6.78526 0.107626 6.78889 0.115693 6.79488 0.122484L8.98539 2.62635C8.99098 2.63278 8.99847 2.63786 9.0071 2.64107C9.01573 2.64427 9.0252 2.6455 9.03455 2.64462C9.04389 2.64374 9.05279 2.64079 9.06034 2.63606C9.0679 2.63133 9.07384 2.62499 9.07756 2.61769L10.2508 0.332401L10.3456 0.13822C10.349 0.131555 10.3504 0.124297 10.3497 0.117068C10.349 0.109838 10.3462 0.102851 10.3416 0.0967074C10.3371 0.0905633 10.3308 0.0854443 10.3234 0.081789C10.316 0.0781337 10.3076 0.0760509 10.2991 0.0757191L6.8383 0.0501334ZM5.98988 9.76462L3.556 3.82327C3.54885 3.80602 3.53558 3.79104 3.518 3.78041C3.50043 3.76978 3.47942 3.76401 3.45786 3.76389L0.139941 3.73937C0.120721 3.73918 0.101847 3.74357 0.0854689 3.75203C0.0690913 3.7605 0.0558687 3.7727 0.0473078 3.78725C0.0387469 3.8018 0.035192 3.81811 0.0370481 3.83433C0.0389042 3.85054 0.0460967 3.86601 0.0578061 3.87896L5.97914 10.4611C5.99919 10.4834 6.02787 10.499 6.06011 10.5051C6.09234 10.5112 6.12603 10.5074 6.15521 10.4944C6.18455 10.4816 6.20743 10.4602 6.21967 10.4343C6.23192 10.4083 6.23271 10.3794 6.22191 10.3529L5.98988 9.76462ZM12.8435 3.83328L9.52554 3.80875C9.5041 3.80859 9.48316 3.81408 9.46561 3.82446C9.44806 3.83483 9.43477 3.84959 9.42759 3.86668L6.68338 10.3462C6.67186 10.3734 6.67216 10.4032 6.68424 10.4304C6.69633 10.4575 6.71939 10.4801 6.74931 10.4941C6.77924 10.5081 6.81401 10.5127 6.84744 10.507C6.88086 10.5013 6.91076 10.4857 6.9318 10.463L12.9241 3.97408C12.9359 3.9613 12.9433 3.94594 12.9453 3.92976C12.9473 3.91357 12.944 3.89721 12.9356 3.88254C12.9272 3.86786 12.9141 3.85546 12.8978 3.84675C12.8815 3.83805 12.8627 3.83338 12.8435 3.83328ZM6.59452 1.14495L8.1294 2.90113C8.14162 2.91511 8.14902 2.93167 8.15076 2.94898C8.1525 2.96628 8.14853 2.98363 8.13928 2.99909C8.13003 3.01454 8.11588 3.0275 8.0984 3.03649C8.08092 3.04549 8.06081 3.05017 8.04032 3.05002L4.95132 3.02719C4.93083 3.02703 4.91078 3.02205 4.8934 3.0128C4.87602 3.00354 4.86201 2.99038 4.85293 2.97479C4.84385 2.9592 4.84007 2.94179 4.84201 2.92451C4.84394 2.90724 4.85152 2.89078 4.86389 2.87699L6.418 1.14365C6.42834 1.13212 6.44172 1.12279 6.45707 1.11642C6.47243 1.11004 6.48934 1.10679 6.50646 1.10692C6.52359 1.10704 6.54046 1.11055 6.55575 1.11715C6.57103 1.12375 6.5843 1.13327 6.59452 1.14495ZM6.3615 8.39431L4.51902 3.89629C4.51323 3.88215 4.51152 3.86706 4.51404 3.85228C4.51655 3.8375 4.52321 3.82346 4.53346 3.81134C4.54371 3.79922 4.55726 3.78937 4.57295 3.78261C4.58865 3.77585 4.60605 3.77239 4.62368 3.77251L8.35972 3.80013C8.37736 3.80027 8.39471 3.80399 8.41033 3.81098C8.42596 3.81797 8.43939 3.82802 8.44951 3.84029C8.45962 3.85256 8.46613 3.8667 8.46848 3.88152C8.47083 3.89633 8.46895 3.9114 8.46301 3.92544L6.57029 8.39585C6.56257 8.414 6.54839 8.42965 6.52971 8.44066C6.51103 8.45166 6.48876 8.45748 6.46597 8.45731C6.44317 8.45714 6.42096 8.451 6.40241 8.43972C6.38385 8.42843 6.36902 8.41257 6.3615 8.39431Z"/>
</mask>
<path d="M2.80881 0.0203433C2.79051 0.0200653 2.77243 0.0236491 2.75621 0.0307719C2.73998 0.0378946 2.72612 0.0483325 2.71587 0.061145C2.70562 0.0739575 2.69931 0.088742 2.6975 0.104166C2.69568 0.119591 2.69843 0.13517 2.70549 0.149501L2.76823 0.276849L3.87853 2.5026C3.88608 2.51774 3.89819 2.53095 3.91364 2.54089C3.92909 2.55084 3.94735 2.55717 3.96657 2.55925C3.98579 2.56134 4.0053 2.5591 4.02314 2.55276C4.04097 2.54643 4.05651 2.53622 4.06818 2.52317L6.15293 0.194617C6.1653 0.180821 6.17288 0.164365 6.17481 0.147091C6.17675 0.129817 6.17297 0.112409 6.16389 0.0968158C6.15481 0.081223 6.1408 0.0680621 6.12342 0.0588078C6.10604 0.0495535 6.08599 0.0445715 6.0655 0.0444201L2.80881 0.0203433ZM11.0302 0.690074L9.87927 2.93346C9.87203 2.94763 9.86906 2.9631 9.87062 2.97851C9.87218 2.99391 9.87822 3.00877 9.88821 3.02174C9.89819 3.03471 9.91181 3.04539 9.92784 3.05283C9.94387 3.06027 9.96181 3.06423 9.98005 3.06436L12.7657 3.08496C12.7853 3.08511 12.8047 3.0808 12.8217 3.07249C12.8387 3.06417 12.8527 3.05214 12.8624 3.03765C12.872 3.02316 12.8769 3.00673 12.8765 2.99007C12.8762 2.97341 12.8705 2.95712 12.8602 2.94288L11.2253 0.679131C11.2147 0.664556 11.1996 0.652695 11.1817 0.644835C11.1638 0.636974 11.1437 0.633415 11.1236 0.634542C11.1035 0.63567 11.0841 0.641442 11.0677 0.651231C11.0512 0.661021 11.0383 0.674454 11.0302 0.690074ZM1.79276 0.610331L0.133539 2.84879C0.123085 2.86287 0.117277 2.87908 0.116714 2.89574C0.116152 2.91239 0.120856 2.92889 0.13034 2.94352C0.139824 2.95816 0.153743 2.97039 0.170655 2.97896C0.187567 2.98753 0.206856 2.99212 0.226526 2.99225L3.01214 3.01285C3.0304 3.01297 3.04839 3.00924 3.06449 3.00201C3.0806 2.99478 3.09432 2.98427 3.10442 2.97142C3.11452 2.95858 3.12069 2.94379 3.12238 2.9284C3.12407 2.913 3.12122 2.89748 3.11408 2.88321L1.98576 0.624143C1.97768 0.608794 1.96489 0.595553 1.94872 0.585809C1.93255 0.576065 1.9136 0.570178 1.89386 0.568766C1.87412 0.567353 1.85432 0.570467 1.83653 0.57778C1.81874 0.585094 1.80362 0.596337 1.79276 0.610331ZM6.8383 0.0501334C6.82832 0.0500049 6.8185 0.0522453 6.80997 0.0566012C6.80143 0.0609572 6.79451 0.067255 6.78999 0.0747824C6.78547 0.0823098 6.78354 0.0907666 6.7844 0.0991964C6.78526 0.107626 6.78889 0.115693 6.79488 0.122484L8.98539 2.62635C8.99098 2.63278 8.99847 2.63786 9.0071 2.64107C9.01573 2.64427 9.0252 2.6455 9.03455 2.64462C9.04389 2.64374 9.05279 2.64079 9.06034 2.63606C9.0679 2.63133 9.07384 2.62499 9.07756 2.61769L10.2508 0.332401L10.3456 0.13822C10.349 0.131555 10.3504 0.124297 10.3497 0.117068C10.349 0.109838 10.3462 0.102851 10.3416 0.0967074C10.3371 0.0905633 10.3308 0.0854443 10.3234 0.081789C10.316 0.0781337 10.3076 0.0760509 10.2991 0.0757191L6.8383 0.0501334ZM5.98988 9.76462L3.556 3.82327C3.54885 3.80602 3.53558 3.79104 3.518 3.78041C3.50043 3.76978 3.47942 3.76401 3.45786 3.76389L0.139941 3.73937C0.120721 3.73918 0.101847 3.74357 0.0854689 3.75203C0.0690913 3.7605 0.0558687 3.7727 0.0473078 3.78725C0.0387469 3.8018 0.035192 3.81811 0.0370481 3.83433C0.0389042 3.85054 0.0460967 3.86601 0.0578061 3.87896L5.97914 10.4611C5.99919 10.4834 6.02787 10.499 6.06011 10.5051C6.09234 10.5112 6.12603 10.5074 6.15521 10.4944C6.18455 10.4816 6.20743 10.4602 6.21967 10.4343C6.23192 10.4083 6.23271 10.3794 6.22191 10.3529L5.98988 9.76462ZM12.8435 3.83328L9.52554 3.80875C9.5041 3.80859 9.48316 3.81408 9.46561 3.82446C9.44806 3.83483 9.43477 3.84959 9.42759 3.86668L6.68338 10.3462C6.67186 10.3734 6.67216 10.4032 6.68424 10.4304C6.69633 10.4575 6.71939 10.4801 6.74931 10.4941C6.77924 10.5081 6.81401 10.5127 6.84744 10.507C6.88086 10.5013 6.91076 10.4857 6.9318 10.463L12.9241 3.97408C12.9359 3.9613 12.9433 3.94594 12.9453 3.92976C12.9473 3.91357 12.944 3.89721 12.9356 3.88254C12.9272 3.86786 12.9141 3.85546 12.8978 3.84675C12.8815 3.83805 12.8627 3.83338 12.8435 3.83328ZM6.59452 1.14495L8.1294 2.90113C8.14162 2.91511 8.14902 2.93167 8.15076 2.94898C8.1525 2.96628 8.14853 2.98363 8.13928 2.99909C8.13003 3.01454 8.11588 3.0275 8.0984 3.03649C8.08092 3.04549 8.06081 3.05017 8.04032 3.05002L4.95132 3.02719C4.93083 3.02703 4.91078 3.02205 4.8934 3.0128C4.87602 3.00354 4.86201 2.99038 4.85293 2.97479C4.84385 2.9592 4.84007 2.94179 4.84201 2.92451C4.84394 2.90724 4.85152 2.89078 4.86389 2.87699L6.418 1.14365C6.42834 1.13212 6.44172 1.12279 6.45707 1.11642C6.47243 1.11004 6.48934 1.10679 6.50646 1.10692C6.52359 1.10704 6.54046 1.11055 6.55575 1.11715C6.57103 1.12375 6.5843 1.13327 6.59452 1.14495ZM6.3615 8.39431L4.51902 3.89629C4.51323 3.88215 4.51152 3.86706 4.51404 3.85228C4.51655 3.8375 4.52321 3.82346 4.53346 3.81134C4.54371 3.79922 4.55726 3.78937 4.57295 3.78261C4.58865 3.77585 4.60605 3.77239 4.62368 3.77251L8.35972 3.80013C8.37736 3.80027 8.39471 3.80399 8.41033 3.81098C8.42596 3.81797 8.43939 3.82802 8.44951 3.84029C8.45962 3.85256 8.46613 3.8667 8.46848 3.88152C8.47083 3.89633 8.46895 3.9114 8.46301 3.92544L6.57029 8.39585C6.56257 8.414 6.54839 8.42965 6.52971 8.44066C6.51103 8.45166 6.48876 8.45748 6.46597 8.45731C6.44317 8.45714 6.42096 8.451 6.40241 8.43972C6.38385 8.42843 6.36902 8.41257 6.3615 8.39431Z" fill="#189EBC" stroke="#FFFEFE" stroke-width="2" mask="url(#path-1-inside-1_13_67)"/>
</svg>
