<svg width="24" height="22" viewBox="0 0 24 22" fill="none" xmlns="http://www.w3.org/2000/svg">
<path fill-rule="evenodd" clip-rule="evenodd" d="M12 3.32691L21.5992 12.8971V19.6074C21.5992 20.242 21.3464 20.8505 20.8963 21.2992C20.4463 21.7479 19.8359 22 19.1994 22H4.80061C4.16414 22 3.55374 21.7479 3.10369 21.2992C2.65364 20.8505 2.40081 20.242 2.40081 19.6074V12.8971L12 3.32691ZM19.9993 2.06204V7.64467L16.7996 4.4546V2.06204C16.7996 1.85053 16.8839 1.64768 17.0339 1.49811C17.1839 1.34855 17.3874 1.26452 17.5995 1.26452H19.1994C19.4115 1.26452 19.615 1.34855 19.765 1.49811C19.915 1.64768 19.9993 1.85053 19.9993 2.06204Z" fill="#EA5A27"/>
<path fill-rule="evenodd" clip-rule="evenodd" d="M10.8689 0.467005C11.1689 0.167982 11.5758 0 12 0C12.4242 0 12.8311 0.167982 13.1311 0.467005L23.7654 11.0676C23.9156 11.2174 24 11.4205 24 11.6323C24 11.844 23.9156 12.0472 23.7654 12.1969C23.6152 12.3467 23.4115 12.4308 23.1991 12.4308C22.9866 12.4308 22.7829 12.3467 22.6327 12.1969L12 1.5947L1.3673 12.1969C1.21709 12.3467 1.01337 12.4308 0.800943 12.4308C0.58852 12.4308 0.384797 12.3467 0.234591 12.1969C0.0843849 12.0472 0 11.844 0 11.6323C0 11.4205 0.0843849 11.2174 0.234591 11.0676L10.8689 0.467005Z" fill="#EA5A27"/>
</svg>
