<svg width="106" height="82" viewBox="0 0 106 82" fill="none" xmlns="http://www.w3.org/2000/svg">
<path d="M3.12004 24.5616C2.09502 25.5091 2.03843 26.8043 2.07234 28.0017C2.20166 32.56 3.14155 37.3534 7.02622 40.9699C11.9263 45.5318 20.6269 47.2679 28.6621 46.9444C36.6973 46.621 44.3624 44.564 52.036 42.8305C57.5512 41.5845 63.1377 40.4959 68.7903 39.6192C74.8735 38.6756 81.4085 37.8449 85.9239 34.7831C92.1411 30.5673 91.947 22.5048 85.5308 18.4448C82.2972 16.3987 78.0486 15.4137 73.9285 14.4878C70.4133 13.6978 66.8575 12.9077 63.1823 12.7152C58.854 12.4883 54.5351 13.0986 50.279 13.7059C35.0187 15.8829 19.5282 18.1163 5.7028 23.2206C4.74935 23.5725 3.77648 23.9549 3.12004 24.5616Z" fill="#EFEFEF"/>
<path d="M20.2272 40.0946C16.4819 36.61 12.9939 26.1826 12.8681 21.7913C12.8571 21.4816 12.8603 21.1717 12.8777 20.8622C10.4453 21.5766 8.04842 22.3546 5.7028 23.2206C4.74935 23.5725 3.77648 23.9549 3.12004 24.5616C2.09502 25.5091 2.03843 26.8043 2.07234 28.0017C2.20166 32.56 3.14155 37.3534 7.02622 40.9699C11.9263 45.5318 20.6269 47.2679 28.6621 46.9444C31.8428 46.8163 34.9649 46.4143 38.0533 45.8706C31.2287 45.6831 24.3401 43.921 20.2272 40.0946Z" fill="#DDDDDD"/>
<path d="M79.4974 26.4189C66.5509 27.9702 52.5007 26.8786 41.0942 31.6036C36.5098 33.5027 32.4796 36.3059 27.3424 37.1769C20.8743 38.2737 14.2514 36.0258 8.86811 33.2544C5.17965 31.3555 1.59316 28.9892 0.41146 25.8252C-0.953587 22.1706 1.21781 17.1049 4.85809 14.3535C8.49837 11.6021 13.3066 7.95572 18.1388 6.44848C26.2723 3.91177 34.5372 2.75763 43.099 1.13466C52.7079 -0.686743 63.1568 0.147873 72.7222 1.98839C82.2876 3.8289 91.0143 9.4301 91.9379 16.5573C92.23 18.8114 91.6741 21.2253 89.6975 22.9943C87.2854 25.1531 83.2771 25.966 79.4974 26.4189Z" fill="#FFE46A"/>
<path d="M91.9716 16.5598C91.9128 16.1087 91.8224 15.6604 91.701 15.2167C91.3167 16.2106 90.7127 17.1495 89.8095 17.9561C87.2932 20.2037 83.1087 21.0486 79.163 21.5187C65.6475 23.1292 50.9771 21.9861 39.072 26.9029C34.2872 28.879 30.0816 31.7972 24.719 32.7024C17.9669 33.842 11.0503 31.4979 5.42731 28.6088C3.6226 27.6814 1.84456 26.6455 0.333584 25.4693C0.370534 25.5889 0.400702 25.7089 0.445135 25.8279C1.62683 28.9917 3.94931 31.8351 7.638 33.7338C13.0215 36.5054 20.7536 39.4634 27.2218 38.3666C32.3587 37.4955 36.5187 35.4548 41.1033 33.5557C52.5098 28.8308 66.204 29.4825 79.1504 27.9311C82.93 27.4782 87.5415 26.0692 89.9533 23.9104C91.9299 22.1413 92.2637 18.8139 91.9716 16.5598Z" fill="#FFCD00"/>
<path d="M59.5304 31.3228L58.7951 23.0086L58.8285 23.0035C58.8285 23.0035 56.6768 13.3521 50.5136 8.60334C45.5978 4.81568 40.5818 1.46454 40.5818 1.46454L29.2376 3.60761C29.2376 3.60761 39.0079 10.4572 43.0965 15.0108C46.4075 18.6984 47.4645 23.1755 47.6986 24.376L47.6939 24.3766C47.6939 24.3766 48.8396 31.4523 48.7281 31.755C48.6165 32.0578 48.9236 43.8305 48.9236 43.8305L59.1412 41.3466C59.1412 41.3466 59.7029 38.2482 59.7315 36.959C59.76 35.6699 59.5304 31.3228 59.5304 31.3228Z" fill="#3D4432"/>
<path d="M99.0573 40.567L98.8924 39.956C98.1431 37.1791 94.5552 35.3753 90.9194 35.9476L90.1194 36.0735C86.4833 36.6458 84.1215 39.3859 84.8708 42.1626L85.0357 42.7737C85.785 45.5506 89.3729 47.3543 93.0087 46.7821L93.8088 46.6561C97.4448 46.0841 99.8066 43.3439 99.0573 40.567Z" fill="#D45C20"/>
<path d="M99.6307 52.1668L99.4659 51.5558C98.7166 48.7788 95.1287 46.9751 91.4928 47.5474L90.6928 47.6733C87.0567 48.2455 84.695 50.9857 85.4443 53.7624L85.6091 54.3734C86.3584 57.1504 89.9463 58.9541 93.5821 58.3818L94.3822 58.2559C98.018 57.6839 100.38 54.9437 99.6307 52.1668Z" fill="#EC7B30"/>
<path d="M73.61 49.477L73.6043 48.8532C73.5789 46.018 70.5204 43.7144 66.8083 43.7338L65.9915 43.7381C62.2792 43.7576 59.2628 46.0934 59.2883 48.9283L59.2939 49.5522C59.2986 50.0482 59.3976 50.541 59.5879 51.0152C56.0442 51.1793 53.2234 53.4538 53.2481 56.1957L53.2538 56.8196C53.2792 59.6548 56.3377 61.9584 60.0498 61.9389L60.8666 61.9346C64.5789 61.9152 67.5953 59.5794 67.5698 56.7444L67.5642 56.1205C67.5595 55.6246 67.4605 55.1318 67.2702 54.6576C70.8139 54.4935 73.6347 52.2189 73.61 49.477Z" fill="#E55525"/>
<path d="M56.1134 53.4799L55.9485 52.8689C55.1992 50.0919 51.6114 48.2882 47.9755 48.8605L47.1755 48.9864C43.5394 49.5586 41.1776 52.2988 41.9269 55.0755L42.0918 55.6865C42.8411 58.4635 46.429 60.2672 50.0648 59.6949L50.8649 59.569C54.5007 58.9968 56.8627 56.2566 56.1134 53.4799Z" fill="#D45C20"/>
<path d="M84.1101 45.6238L83.9361 44.9792C83.1459 42.0501 79.3613 40.1475 75.526 40.7511L74.682 40.884C74.4273 40.924 74.1792 40.9749 73.9369 41.0346C74.1142 39.7306 73.7334 38.375 72.7283 37.198L72.2157 36.5977C69.8862 33.8695 65.0577 33.0931 61.4854 34.872L60.6994 35.2635C57.4913 36.8613 56.3461 39.9983 57.8332 42.5974C56.7344 42.3273 55.5627 42.2791 54.4322 42.4573L53.6321 42.5833C49.9961 43.1555 47.6343 45.8956 48.3836 48.6724L48.5485 49.2834C49.2978 52.0603 52.8857 53.8641 56.5215 53.2918L57.3215 53.1659C60.9576 52.5936 63.3194 49.8535 62.5701 47.0768L62.4052 46.4658C62.3845 46.3904 62.3616 46.3153 62.3367 46.2407C64.4262 46.9358 66.8815 46.9228 69.0036 46.0862C68.991 46.4884 69.0352 46.8971 69.1458 47.307L69.3198 47.9516C70.11 50.8807 73.8946 52.7833 77.7299 52.1796L78.5739 52.0468C82.409 51.4431 84.9003 48.5529 84.1101 45.6238Z" fill="#F26C24"/>
<path d="M70.1827 56.946C56.2626 57.0193 43.5562 57.8557 34.913 54.8996C34.2504 56.3366 34.7741 58.3504 34.789 60.0137L35.905 71.189C36.897 77.6289 40.3979 78.6009 50.0417 80.7543C50.1348 80.775 50.2316 80.7888 50.3244 80.8102C51.4495 81.071 59.7142 82.8377 75.711 81.5119C89.5198 80.3674 98.652 75.5455 98.652 75.5455C105.968 71.9466 105.034 66.1066 104.976 59.7296L104.604 51.1114C104.589 49.4481 103.929 49.2268 103.24 47.7967C94.6509 50.8433 84.1026 56.8728 70.1827 56.946Z" fill="#444D38"/>
<path d="M45.0932 51.5808L44.9283 50.9698C44.179 48.1928 40.5911 46.3891 36.9553 46.9614L36.1552 47.0873C32.5192 47.6595 30.1574 50.3997 30.9067 53.1764L31.0716 53.7874C31.8209 56.5644 35.4088 58.3681 39.0446 57.7958L39.8446 57.6699C43.4807 57.0979 45.8425 54.3577 45.0932 51.5808ZM80.4277 52.3293L80.2525 51.6797C79.456 48.7278 75.642 46.8103 71.7767 47.4186L70.9262 47.5524C67.0609 48.1607 64.5502 51.0736 65.3467 54.0255L65.5219 54.6751C66.3184 57.6271 70.1324 59.5446 73.9975 58.9362L74.848 58.8025C78.7135 58.1941 81.2242 55.2813 80.4277 52.3293ZM89.8785 36.5859L89.7136 35.9749C88.9643 33.198 85.3764 31.3943 81.7406 31.9665L80.9406 32.0924C77.3045 32.6647 74.9427 35.4048 75.692 38.1816L75.8569 38.7926C76.6062 41.5695 80.1941 43.3732 83.8299 42.801L84.63 42.6751C88.2658 42.1028 90.6278 39.3627 89.8785 36.5859Z" fill="#EC7B30"/>
<path d="M92.1243 51.4699C92.0976 48.5075 88.9021 46.1007 85.0235 46.121L84.1699 46.1255C80.2911 46.1459 77.1396 48.5863 77.1663 51.5485L77.1738 52.3758C77.2004 55.3381 80.3959 57.7449 84.2745 57.7246L85.1281 57.7201C89.0069 57.6998 92.1584 55.2593 92.1317 52.2972L92.1243 51.4699Z" fill="#F24D20"/>
<path d="M56.521 39.2207C56.4955 36.3855 53.4371 34.0819 49.725 34.1014L48.9081 34.1056C45.1958 34.1251 42.1795 36.4609 42.205 39.2959L42.2106 39.9197C42.2361 42.7549 45.2945 45.0585 49.0066 45.0391L49.8235 45.0348C53.5358 45.0153 56.5521 42.6795 56.5266 39.8446L56.521 39.2207Z" fill="#ED6623"/>
<path d="M104.182 47.6667C104.156 44.8315 101.098 42.5279 97.3859 42.5474L96.569 42.5516C92.8567 42.5711 89.8404 44.9069 89.8659 47.7419L89.8715 48.3657C89.897 51.2009 92.9554 53.5045 96.6675 53.4851L97.4844 53.4808C101.197 53.4613 104.213 51.1255 104.188 48.2906L104.182 47.6667Z" fill="#E55525"/>
<path d="M94.1972 44.4022C94.1717 41.567 91.1133 39.2634 87.4012 39.2828L86.5843 39.2871C82.872 39.3066 79.8557 41.6424 79.8812 44.4774L79.8868 45.1012C79.9123 47.9364 82.9707 50.24 86.6828 50.2205L87.4997 50.2163C91.212 50.1968 94.2283 47.861 94.2028 45.026L94.1972 44.4022Z" fill="#EB6523"/>
<path d="M81.5217 39.6451C81.4962 36.8099 78.4378 34.5063 74.7257 34.5257L73.9088 34.53C70.1965 34.5495 67.1802 36.8853 67.2057 39.7202L67.2113 40.3441C67.2368 43.1793 70.2952 45.4829 74.0073 45.4634L74.8242 45.4591C78.5365 45.4397 81.5528 43.1039 81.5273 40.2689L81.5217 39.6451ZM50.7119 44.7738C50.6864 41.9387 47.628 39.635 43.9159 39.6545L43.099 39.6588C39.3867 39.6783 36.3704 42.0141 36.3959 44.849L36.4015 45.4729C36.427 48.3081 39.4854 50.6117 43.1975 50.5922L44.0144 50.5879C47.7267 50.5685 50.743 48.2327 50.7175 45.3977L50.7119 44.7738Z" fill="#F24D20"/>
<path d="M62.6748 39.8194L62.51 39.2084C61.7607 36.4314 58.1728 34.6277 54.5369 35.2L53.7369 35.3259C50.1008 35.8981 47.7391 38.6383 48.4884 41.415L48.6532 42.026C49.4025 44.803 52.9904 46.6067 56.6263 46.0344L57.4263 45.9085C61.0621 45.3364 63.4241 42.5963 62.6748 39.8194Z" fill="#EC7B30"/>
<path d="M46.6766 38.9885C47.7812 38.9885 48.6766 38.3047 48.6766 37.4611C48.6766 36.6175 47.7812 35.9337 46.6766 35.9337C45.5721 35.9337 44.6767 36.6175 44.6767 37.4611C44.6767 38.3047 45.5721 38.9885 46.6766 38.9885Z" fill="#F7C2A9"/>
<path d="M44.6893 42.3023C44.6911 42.5029 44.6412 42.7018 44.5424 42.8876C44.4435 43.0735 44.2977 43.2427 44.1133 43.3855C43.9289 43.5283 43.7094 43.6419 43.4674 43.72C43.2255 43.798 42.9658 43.8389 42.7031 43.8403C42.4405 43.8417 42.18 43.8035 41.9367 43.728C41.6934 43.6526 41.4719 43.5412 41.2849 43.4004C41.0979 43.2595 40.949 43.0919 40.8468 42.9071C40.7447 42.7223 40.6911 42.524 40.6893 42.3234C40.6857 41.9183 40.8929 41.5287 41.2654 41.2403C41.6378 40.9518 42.1451 40.7882 42.6755 40.7854C43.2059 40.7826 43.7161 40.9409 44.0938 41.2254C44.4714 41.5098 44.6856 41.8972 44.6893 42.3023ZM97.6511 44.4534C97.3885 44.4548 97.1287 44.4957 96.8868 44.5737C96.6448 44.6518 96.4254 44.7654 96.2409 44.9082C96.0565 45.0511 95.9107 45.2202 95.8119 45.4061C95.713 45.5919 95.6631 45.7908 95.6649 45.9914C95.6667 46.192 95.7203 46.3903 95.8224 46.5751C95.9246 46.7599 96.0735 46.9275 96.2605 47.0683C96.4474 47.2092 96.6689 47.3205 96.9123 47.396C97.1556 47.4715 97.416 47.5096 97.6787 47.5083C98.2091 47.5055 98.7164 47.3419 99.0889 47.0534C99.4613 46.765 99.6685 46.3754 99.6649 45.9703C99.6612 45.5652 99.447 45.1778 99.0693 44.8933C98.6917 44.6089 98.1815 44.4506 97.6511 44.4534ZM92.5609 37.5014C92.2982 37.5028 92.0385 37.5437 91.7966 37.6217C91.5546 37.6998 91.3351 37.8135 91.1507 37.9563C90.9663 38.0991 90.8205 38.2682 90.7216 38.4541C90.6228 38.6399 90.5729 38.8388 90.5747 39.0394C90.5765 39.24 90.63 39.4383 90.7322 39.6231C90.8344 39.8079 90.9832 39.9755 91.1702 40.1164C91.3572 40.2572 91.5787 40.3686 91.8221 40.444C92.0654 40.5195 92.3258 40.5577 92.5885 40.5563C93.1189 40.5535 93.6261 40.3899 93.9986 40.1015C94.3711 39.813 94.5783 39.4234 94.5747 39.0183C94.571 38.6132 94.3568 38.2258 93.9791 37.9414C93.6015 37.6569 93.0913 37.4987 92.5609 37.5014ZM81.2598 50.0484C80.9971 50.0498 80.7374 50.0906 80.4955 50.1687C80.2535 50.2467 80.0341 50.3604 79.8496 50.5032C79.6652 50.646 79.5194 50.8152 79.4206 51.001C79.3217 51.1869 79.2718 51.3857 79.2736 51.5863C79.2754 51.7869 79.3289 51.9853 79.4311 52.17C79.5333 52.3548 79.6821 52.5224 79.8691 52.6633C80.0561 52.8041 80.2776 52.9155 80.521 52.991C80.7643 53.0665 81.0247 53.1046 81.2874 53.1032C81.8178 53.1004 82.325 52.9368 82.6975 52.6484C83.07 52.36 83.2772 51.9704 83.2736 51.5653C83.2699 51.1602 83.0557 50.7728 82.678 50.4883C82.3004 50.2038 81.7902 50.0456 81.2598 50.0484Z" fill="#F48165"/>
<path d="M84.7064 34.4795C84.7101 34.8846 84.5029 35.2742 84.1304 35.5626C83.7579 35.851 83.2507 36.0146 82.7202 36.0174C82.1898 36.0202 81.6797 35.862 81.302 35.5775C80.9243 35.293 80.7101 34.9056 80.7065 34.5005C80.7046 34.3 80.7546 34.1011 80.8534 33.9152C80.9523 33.7294 81.0981 33.5602 81.2825 33.4174C81.4669 33.2746 81.6864 33.1609 81.9283 33.0829C82.1703 33.0048 82.43 32.964 82.6926 32.9626C82.9553 32.9612 83.2157 32.9993 83.4591 33.0748C83.7024 33.1503 83.9239 33.2617 84.1109 33.4025C84.2979 33.5434 84.4467 33.711 84.5489 33.8958C84.6511 34.0805 84.7046 34.2789 84.7064 34.4795ZM64.5736 35.5425C64.0431 35.5453 63.5359 35.7089 63.1634 35.9973C62.7909 36.2858 62.5837 36.6754 62.5874 37.0805C62.591 37.4856 62.8053 37.873 63.1829 38.1574C63.5606 38.4419 64.0707 38.6002 64.6012 38.5974C65.1316 38.5946 65.6388 38.431 66.0113 38.1425C66.3838 37.8541 66.591 37.4645 66.5873 37.0594C66.5837 36.6543 66.3695 36.2669 65.9918 35.9824C65.6141 35.698 65.104 35.5397 64.5736 35.5425Z" fill="#F4B994"/>
<path d="M36.9857 50.5624C36.9875 50.763 36.9376 50.9619 36.8387 51.1477C36.7399 51.3336 36.5941 51.5027 36.4097 51.6455C36.2252 51.7883 36.0058 51.902 35.7638 51.9801C35.5219 52.0581 35.2621 52.099 34.9995 52.1004C34.604 52.1024 34.2165 52.0149 33.8861 51.8488C33.5557 51.6827 33.2972 51.4455 33.1433 51.1672C32.9894 50.8889 32.9471 50.582 33.0216 50.2853C33.096 49.9886 33.2841 49.7155 33.5618 49.5004C33.8396 49.2853 34.1946 49.138 34.582 49.077C34.9695 49.016 35.3718 49.0441 35.7383 49.1578C36.1048 49.2715 36.4189 49.4656 36.6409 49.7156C36.863 49.9656 36.9829 50.2603 36.9857 50.5624ZM73.2776 35.9805C72.7472 35.9832 72.24 36.1469 71.8675 36.4353C71.495 36.7237 71.2878 37.1133 71.2915 37.5184C71.2951 37.9235 71.5093 38.3109 71.887 38.5954C72.2646 38.8798 72.7748 39.0381 73.3052 39.0353C73.5679 39.0339 73.8276 38.993 74.0695 38.915C74.3115 38.837 74.531 38.7233 74.7154 38.5805C74.8998 38.4377 75.0456 38.2685 75.1445 38.0827C75.2433 37.8968 75.2932 37.6979 75.2914 37.4973C75.2896 37.2968 75.2361 37.0984 75.1339 36.9136C75.0317 36.7288 74.8829 36.5612 74.6959 36.4204C74.5089 36.2795 74.2874 36.1682 74.044 36.0927C73.8007 36.0172 73.5403 35.9791 73.2776 35.9805ZM85.6437 41.4629C85.3811 41.4643 85.1214 41.5051 84.8794 41.5832C84.6375 41.6612 84.418 41.7749 84.2336 41.9177C84.0491 42.0605 83.9033 42.2297 83.8045 42.4155C83.7057 42.6014 83.6557 42.8003 83.6575 43.0008C83.6594 43.2014 83.7129 43.3998 83.8151 43.5846C83.9173 43.7693 84.0661 43.9369 84.2531 44.0778C84.4401 44.2187 84.6616 44.33 84.9049 44.4055C85.1483 44.481 85.4087 44.5191 85.6713 44.5177C86.2018 44.5149 86.709 44.3513 87.0815 44.0629C87.454 43.7745 87.6612 43.3849 87.6575 42.9798C87.6538 42.5747 87.4396 42.1873 87.062 41.9028C86.6843 41.6183 86.1742 41.4601 85.6437 41.4629ZM70.4491 49.7367C70.1864 49.7381 69.9267 49.779 69.6848 49.857C69.4428 49.935 69.2234 50.0487 69.0389 50.1915C68.8545 50.3343 68.7087 50.5035 68.6099 50.6893C68.511 50.8752 68.4611 51.0741 68.4629 51.2747C68.4647 51.4752 68.5182 51.6736 68.6204 51.8584C68.7226 52.0432 68.8714 52.2108 69.0584 52.3516C69.2454 52.4925 69.4669 52.6038 69.7103 52.6793C69.9536 52.7548 70.214 52.7929 70.4767 52.7915C71.0071 52.7888 71.5144 52.6252 71.8868 52.3367C72.2593 52.0483 72.4665 51.6587 72.4629 51.2536C72.4592 50.8485 72.245 50.4611 71.8673 50.1766C71.4897 49.8922 70.9795 49.7339 70.4491 49.7367Z" fill="#F6CAAE"/>
<path d="M53.8253 40.0223C54.9299 40.0223 55.8253 39.3384 55.8253 38.4948C55.8253 37.6513 54.9299 36.9674 53.8253 36.9674C52.7208 36.9674 51.8253 37.6513 51.8253 38.4948C51.8253 39.3384 52.7208 40.0223 53.8253 40.0223Z" fill="#EFA06F"/>
</svg>
