<svg width="106" height="77" viewBox="0 0 106 77" fill="none" xmlns="http://www.w3.org/2000/svg">
<path d="M52.2633 36.9034C52.2633 36.9034 2.87253 40.0861 3.10022 42.5158C3.3279 44.9456 3.91464 53.8229 6.92713 56.4235C9.93962 59.0241 21.3065 64.1303 29.8886 67.3952C38.4707 70.6602 54.1199 76.1904 62.8158 76.0259C71.5118 75.8613 87.2835 65.8893 87.9754 63.2951C88.6672 60.7008 87.7477 51.3995 87.7477 51.3995L52.2633 36.9034Z" fill="#C9CABB"/>
<path d="M35.7997 16.1242L20.6147 19.8953C20.6147 19.8953 21 23.1033 21.7706 25.2546C22.6989 27.8489 24.897 33.9675 32.3231 36.2264C39.7405 38.4853 80.3215 45.0215 82.7561 44.5216C85.1906 44.0218 92.7305 39.5799 95.5066 37.9031C98.2914 36.2264 68.6044 14.7005 68.6044 14.7005L35.7997 16.1242Z" fill="#C9CABB"/>
<path d="M42.0612 15.2889L24.5554 17.8832C24.5554 17.8832 26.6397 29.861 30.2389 31.7909C33.8381 33.7207 77.0814 41.592 79.7436 41.3389C82.4145 41.0858 92.2664 35.8088 92.2664 35.8088C92.2664 35.8088 94.9374 29.108 94.8148 28.8549C94.7009 28.6082 42.0612 15.2889 42.0612 15.2889ZM7.40002 43.3511C7.40002 43.3511 8.09184 52.3993 9.83453 53.9874C11.5772 55.582 21.0788 61.0235 33.6017 65.3831C46.1245 69.7427 58.1832 72.4192 63.0523 72.5015C67.9213 72.5837 82.7648 64.124 83.9208 62.4472C85.0767 60.7704 82.6422 51.3046 82.6422 51.3046L7.40002 43.3511Z" fill="white"/>
<path d="M18.4079 22.5718C22.3749 23.8816 25.0196 18.13 37.1921 18.0477C49.3647 17.9654 60.3813 22.6541 68.0351 25.4191C75.689 28.1842 91.452 37.397 96.2072 38.403C100.962 39.4091 105.367 35.9733 105.253 31.3669C105.14 26.7606 102.469 14.3588 85.0767 6.31666C67.6849 -1.72549 45.2313 -1.1497 31.7802 3.53892C18.2853 8.25918 10.9555 20.1104 18.4079 22.5718Z" fill="#FF6110"/>
<path d="M29.5208 23.0527C29.7047 24.0334 31.5612 24.16 33.5141 23.9259C34.9503 23.755 36.8594 23.2235 36.5791 22.0466C36.3777 21.1798 34.1184 20.9393 32.4457 21.2114C30.7731 21.4835 29.3369 22.0783 29.5208 23.0527ZM62.378 29.5193C62.1065 30.6836 64.0944 31.1265 66.2311 31.2973C68.3679 31.4618 69.9442 31.4302 70.2682 30.3229C70.5922 29.2156 68.4117 28.6778 66.7916 28.5449C65.1715 28.412 62.6494 28.3171 62.378 29.5193ZM76.3458 33.2778C75.3474 33.9042 75.7415 34.885 77.6944 36.1631C79.6472 37.4349 80.9433 37.4349 81.6877 36.8338C82.432 36.2327 81.2235 34.8217 80.1114 34.0814C78.9904 33.3474 77.4054 32.6071 76.3458 33.2778ZM11.4196 51.4185C10.2286 52.4309 11.3758 53.6331 13.4162 54.8733C15.4567 56.1135 17.1556 57.2777 18.4254 56.3792C20.1418 55.1707 17.5409 53.4939 16.1047 52.5891C14.6685 51.6843 12.7244 50.3112 11.4196 51.4185ZM19.6864 51.6843C19.0734 52.5005 19.7652 53.3737 21.867 54.133C23.9074 54.8733 25.0196 54.8353 25.7202 54.0317C26.4207 53.2282 24.7919 52.1209 23.2156 51.6147C21.6305 51.1148 20.2819 50.8807 19.6864 51.6843ZM21.4466 58.2711C21.3678 59.2202 21.8407 59.9669 25.8428 60.2453C29.8448 60.53 30.5979 59.6442 30.633 58.9039C30.6855 57.8472 29.2668 57.2461 26.3332 57.1005C23.3995 56.9613 21.543 57.0689 21.4466 58.2711Z" fill="#D4D3D4"/>
<path d="M24.2227 21.0722C23.7585 19.2879 23.2156 16.8771 23.9862 13.9602C25.2122 9.30953 29.8974 4.97525 37.919 1.83052C41.4919 0.988973 45.7042 0.489107 49.0494 0.273974C50.3105 0.191718 51.4489 0.153754 52.3859 0.147426C50.4681 0.596673 46.3697 1.28636 42.3239 2.65308C33.7418 5.55104 28.7589 9.89165 27.6205 14.2133C27.0775 16.276 27.1826 18.1996 27.4629 19.6738C26.3244 20.1357 25.1509 20.6103 24.2227 21.0722ZM43.7163 18.4337C43.69 16.2697 44.3118 13.2578 47.333 10.7459C52.3159 6.60139 60.2324 4.48171 65.3029 3.50096C67.9738 2.98211 71.0651 2.66574 74.0776 2.48224C75.435 2.8176 77.887 3.45034 80.882 4.57662C77.0376 4.53866 72.0897 4.70317 67.9476 5.50675C59.9785 7.05697 53.3755 9.60059 50.1791 12.2581C47.5957 14.4031 47.2017 17.1492 47.298 18.9905C45.818 18.7374 44.916 18.5982 43.7163 18.4337ZM60.898 22.8059C61.8087 20.9014 63.5252 18.4969 66.7829 16.5608C75.2511 11.5368 84.455 10.961 87.3186 10.7459C89.0963 10.613 90.8477 10.5497 92.4328 10.5371C93.5187 11.2963 94.8586 12.3277 95.6292 13.049C93.6851 12.9858 91.1104 12.9794 88.4658 13.1882C86.6005 13.3338 76.4246 14.2639 69.3837 18.44C66.5289 20.1357 64.9964 22.3314 64.1819 24.0081C63.0435 23.6032 62.2641 23.2931 60.898 22.8059ZM76.4421 29.1776C77.7557 27.7729 80.0763 25.6976 83.553 24.0714C89.3678 21.3443 94.6834 20.4142 101.208 20.4142C101.409 20.4142 101.61 20.4142 101.812 20.4205C102.451 21.4392 102.88 22.3883 103.178 23.0147C102.565 22.9704 101.908 22.9451 101.208 22.9451C95.4015 22.9451 90.6901 23.8689 85.4796 26.3113C82.5109 27.7033 80.4879 29.4687 79.3582 30.6329C77.9571 29.9432 77.0901 29.513 76.4421 29.1776Z" fill="#FE8E6E"/>
<path d="M23.3382 10.1637C24.1964 10.4991 23.8811 12.0936 22.7952 13.3021C21.7093 14.5043 20.5884 15.4598 19.3449 15.0358C18.1014 14.6182 18.9596 12.682 19.7302 11.7899C20.5096 10.8914 21.9108 9.60692 23.3382 10.1637ZM40.3185 7.89852C42.0174 9.3032 38.7684 10.2776 38.5758 11.5937C38.3831 12.9098 39.9156 12.3593 39.8193 13.7514C39.7055 15.3459 31.7189 16.4658 30.633 13.6122C29.5383 10.7522 37.954 5.93702 40.3185 7.89852ZM58.2095 11.2394C56.9222 10.284 53.6733 11.1002 51.7729 12.5555C49.8726 14.0108 49.3735 16.5291 52.8151 17.4529C56.2654 18.3767 57.0798 17.0037 56.8434 16.4152C56.6945 16.0293 56.2654 15.1244 56.7646 14.4854C57.2812 13.8463 59.7595 12.391 58.2095 11.2394Z" fill="#F6FFFE"/>
<path d="M32.2881 34.1636C32.2881 34.1636 1.15611 36.7705 0.534345 38.8396C-0.201263 41.2946 0.367958 43.1106 1.74284 44.3255C4.12481 46.4325 14.0117 47.1791 27.314 51.7032C39.4252 55.8224 44.2767 58.0433 51.3964 60.6502C58.516 63.2571 63.7791 64.3138 68.9459 63.3963C74.1127 62.4788 80.0588 60.9286 85.0329 58.0433C88.7898 55.8604 90.1472 52.7789 89.8056 49.6595C89.5166 47.002 87.5638 44.1673 85.1293 42.7563C82.686 41.3453 32.3844 33.8789 32.2881 34.1636Z" fill="#CC1935"/>
<path d="M24.3891 27.4692C6.55057 29.861 0.149027 37.4096 0.578132 39.0864C0.849606 40.1431 4.58019 39.6179 19.1347 43.3194C40.1959 48.6724 56.9835 55.0505 62.9297 55.7591C71.1089 56.7272 79.4546 53.342 82.721 51.602C88.0016 48.7863 88.6322 45.8567 86.6881 43.9585C84.7264 42.0539 73.3333 34.2206 56.3705 29.861C42.8493 26.3936 34.0833 26.1658 24.3891 27.4692Z" fill="#FF605F"/>
<path d="M11.7699 32.4046C9.7382 32.2401 2.39964 35.562 4.99178 38.5485C7.59268 41.5414 19.8178 41.1048 20.0805 38.9029C20.387 36.3656 13.2323 36.3719 12.2165 35.2836C11.2007 34.2016 14.1606 32.6008 11.7699 32.4046Z" fill="#F9FFFF"/>
</svg>
