<svg width="98" height="87" viewBox="0 0 98 87" fill="none" xmlns="http://www.w3.org/2000/svg">
<path d="M77.8791 65.4442C87.5603 51.8635 4.46324 48.5511 4.46324 48.5511C4.46324 48.5511 2.527 51.3666 3.97918 53.5197C4.9473 55.0102 5.75407 55.6727 5.27001 57.1633C4.78595 58.8195 6.56084 60.4756 6.88354 62.1318C7.3676 64.7817 5.91542 66.1067 8.98114 67.5972C10.1106 68.0941 16.0807 70.2471 16.4034 67.5972C17.3715 69.9159 19.3078 72.0689 21.5667 73.0626C23.8257 74.2219 26.73 74.3876 28.8276 74.8844C29.9571 77.5343 31.5706 76.375 33.3455 77.6999C35.2818 79.1905 38.1861 80.5154 40.6064 80.0186C42.704 79.6874 42.5427 78.528 44.8016 80.3498C44.6403 82.9997 47.0606 81.8404 48.8355 82.5029C50.449 82.9997 57.2259 82.9997 58.194 83.331C59.1621 83.8278 57.3872 85.9809 58.8394 86.809C61.2597 88.1339 64.1641 82.1716 65.2935 81.1779C65.1322 82.1716 64.6481 86.6433 66.9071 85.9809C69.8114 85.1528 69.0047 80.8467 71.425 80.0186C74.168 78.8593 75.9429 77.2031 76.5883 74.222C76.911 73.0626 76.911 71.9033 76.911 70.9096C78.6859 70.2471 78.8472 66.4379 77.8791 65.4442Z" fill="#F7F2DF"/>
<path d="M41.8973 76.2094C39.1543 74.7188 36.5726 74.3876 35.9272 75.3813C35.2818 76.375 37.0567 78.528 39.6383 80.0186C42.3813 81.5092 44.963 81.8404 45.6084 80.8467C46.4152 79.6874 44.6403 77.6999 41.8973 76.2094ZM16.5648 66.2723C13.8217 64.9473 11.0787 64.6161 10.5947 65.7754C9.94926 66.7691 11.7242 68.7566 14.6285 70.2471C17.3715 71.5721 20.1145 71.9033 20.5986 70.744C21.0827 69.5847 19.3078 67.5972 16.5648 66.2723ZM27.2141 71.4064C24.4711 70.0815 21.7281 69.7503 21.244 70.9096C20.76 72.0689 22.5348 74.0563 25.2778 75.3813C28.0209 76.7062 30.7639 77.0375 31.2479 75.8781C31.732 74.7188 29.9571 72.7314 27.2141 71.4064ZM59.6462 77.8656C59.9689 77.0375 60.1302 76.375 59.8075 75.8781C59.0007 74.8844 56.4191 75.5469 53.9988 77.3687C51.5785 79.1905 50.2877 81.5092 51.0944 82.5029C51.4171 82.9997 52.2239 82.9997 53.192 82.8341C52.5466 83.9934 52.3853 84.9871 52.8693 85.484C53.6761 86.4777 56.2577 85.484 58.5167 83.4966C60.7756 81.5092 61.9051 79.0249 61.0983 78.1968C60.6143 77.8656 60.1302 77.6999 59.6462 77.8656ZM50.9331 73.8907C50.9331 74.0563 51.0944 74.222 51.0944 74.222C51.9012 75.2157 54.4828 74.5532 56.9031 72.7314C59.3235 70.9096 60.6143 68.5909 59.8075 67.5972C59.0007 66.6035 56.4191 67.266 53.9988 69.0878L53.5147 69.5846C53.5147 69.2534 53.5147 68.9222 53.192 68.7566C52.708 68.0941 51.4171 68.2597 49.9649 69.0878C49.4809 69.0878 48.8355 68.9222 48.3514 68.9222C45.2857 68.7565 42.704 69.7503 42.704 70.9096C42.704 71.7377 43.8335 72.5658 45.6084 72.897C44.8016 74.222 44.4789 75.3813 45.1243 75.8781C45.9311 76.8719 48.5128 75.8781 50.7717 73.8907H50.9331ZM69.0047 70.4127C67.8752 69.9159 65.9389 71.7377 64.6481 74.3876C63.8414 76.0438 63.3573 80.1842 64.4868 80.3498C65.7776 80.3498 67.5525 79.0249 68.8433 76.375C70.1341 73.5595 70.1341 70.9096 69.0047 70.4127ZM77.0723 60.4756C75.9429 59.9788 74.0066 61.8006 72.7158 64.4505C71.425 67.266 71.425 69.9159 72.5544 70.4127C73.6839 70.9096 75.6202 69.0878 76.911 66.4379C78.2018 63.6224 78.2018 60.9725 77.0723 60.4756ZM19.7918 64.6161C19.3078 65.7754 21.0827 67.7628 23.8257 69.0878C26.5687 70.4127 29.3117 70.744 29.7958 69.5846C30.2798 68.4253 28.5049 66.4379 25.7619 65.1129C23.1803 63.788 20.4372 63.6224 19.7918 64.6161ZM13.3377 59.1507C13.1763 56.1696 12.0469 53.6853 10.756 53.8509C9.4652 53.8509 8.65843 56.3352 8.81979 59.4819C8.98114 62.6287 10.1106 64.9473 11.4014 64.7817C12.5309 64.6161 13.499 62.1318 13.3377 59.1507ZM22.0508 61.4693C23.8257 58.9851 24.4711 56.5008 23.503 55.6727C22.5348 55.0102 20.1145 56.3352 18.3396 58.8195C16.5648 61.3037 15.9193 63.788 16.8875 64.6161C18.0169 65.2786 20.2759 63.788 22.0508 61.4693ZM43.8335 67.7628C43.8335 66.6035 41.4132 65.4442 38.3475 65.2786C35.2818 65.1129 32.7001 66.1067 32.7001 67.266C32.7001 68.4253 35.1204 69.5846 38.1861 69.7503C41.2519 69.9159 43.8335 69.0878 43.8335 67.7628Z" fill="#E8E1D6"/>
<path d="M18.8237 13.6056H59.8075V30.0019H18.8237V13.6056Z" fill="#3F4237"/>
<path d="M58.8394 25.8614C62.8732 33.6455 54.9669 42.9201 39.3156 42.9201C23.8257 42.9201 15.9193 33.6455 19.7918 25.8614C22.6962 20.2304 31.0866 16.7524 39.3156 16.7524C47.5446 16.918 55.935 20.396 58.8394 25.8614Z" fill="#3F4237"/>
<path d="M58.8394 9.79642C62.8732 17.7461 54.9669 26.8551 39.3156 26.8551C23.8257 26.8551 15.9193 17.5805 19.7918 9.79642C22.6962 4.33101 31.0866 0.853027 39.3156 0.853027C47.5446 0.853027 55.935 4.33101 58.8394 9.79642Z" fill="#8CC63E"/>
<path d="M57.0645 9.79642C60.2916 16.7524 52.8693 24.7021 39.3156 24.7021C25.7619 24.7021 18.3396 16.7524 21.5667 9.79642C23.987 4.66225 31.5706 1.34988 39.3156 1.34988C47.0606 1.34988 54.6442 4.66225 57.0645 9.79642Z" fill="#FFEEE2"/>
<path d="M48.1901 10.6245C48.9968 13.7713 44.963 16.918 39.3156 16.918C33.6682 16.918 29.7958 13.9369 30.4412 10.6245C31.0866 7.809 34.9591 5.9872 39.3156 5.9872C43.6722 5.9872 47.5446 7.809 48.1901 10.6245Z" fill="#FF5555"/>
<path d="M56.2577 26.3583H97.2415V42.7545H56.2577V26.3583Z" fill="#3F4237"/>
<path d="M96.2734 38.614C100.307 46.3981 92.4009 55.6727 76.7496 55.6727C61.2597 55.6727 53.3534 46.3981 57.2259 38.614C60.1302 32.983 68.5206 29.505 76.7496 29.505C84.9787 29.505 93.3691 33.1486 96.2734 38.614Z" fill="#3F4237"/>
<path d="M96.2734 22.549C100.307 30.3331 92.4009 39.6077 76.7496 39.6077C61.2597 39.6077 53.3534 30.3331 57.2259 22.549C60.1302 16.918 68.5206 13.44 76.7496 13.44C84.9787 13.44 93.3691 17.0836 96.2734 22.549Z" fill="#8CC63E"/>
<path d="M94.4985 22.549C97.7256 29.505 90.3033 37.4547 76.7496 37.4547C63.1959 37.4547 55.7737 29.505 59.0007 22.549C61.421 17.4149 69.0047 14.1025 76.7496 14.1025C84.3333 14.2681 92.0782 17.4149 94.4985 22.549Z" fill="#FFEEE2"/>
<path d="M85.6241 23.3771C86.4308 26.5239 82.397 29.6706 76.7496 29.6706C71.1023 29.6706 67.2298 26.6895 67.8752 23.3771C68.5206 20.5616 72.3931 18.7398 76.7496 18.7398C81.1062 18.7398 84.9787 20.5616 85.6241 23.3771Z" fill="#FF5555"/>
<path d="M0.429401 42.5889C0.268048 46.2325 2.8497 51.0354 6.56084 53.354C10.272 55.6727 65.2935 77.3687 68.1979 74.222C70.9409 71.0752 57.3872 53.1884 49.8036 49.8761C29.473 40.9327 0.429401 42.5889 0.429401 42.5889Z" fill="#EC6430"/>
<path d="M67.3911 67.7628C67.2298 69.5846 67.5525 74.7188 68.1979 74.3876C71.7477 71.7377 81.5902 58.8195 77.0723 48.3855L67.3911 67.7628Z" fill="#E8491F"/>
<path d="M0.429401 42.5889C0.429401 42.5889 9.4652 30.9956 12.8536 29.6706C22.3735 26.1926 22.6962 26.3583 29.7958 28.0144C37.0567 29.6706 69.4887 37.9515 76.911 48.2199C78.8472 50.8698 69.3274 68.4253 67.2298 69.7503C65.2935 70.744 53.9988 67.4316 38.8316 57.3289C21.5667 45.9012 4.14053 43.5826 0.429401 42.5889Z" fill="#F3813B"/>
<path d="M59.0007 66.2723C58.194 65.7754 57.2259 65.2786 56.4191 64.7817C55.935 59.3163 57.8713 53.0228 57.5486 47.5574C56.4191 52.526 53.6761 57.4945 52.3853 62.4631C52.0625 62.2974 51.5785 61.9662 51.2558 61.8006C48.1901 59.8132 44.963 57.9914 41.8973 56.0039C43.9949 49.5448 45.2857 42.2576 42.22 35.9641C43.6722 42.2576 41.2519 48.3855 38.1861 53.8509C37.3794 53.354 36.5726 52.8572 35.6045 52.3603C32.8615 50.8698 29.9571 49.5448 27.0527 48.2199C25.7619 42.5888 30.6025 35.6329 25.6006 30.8299C28.5049 35.6329 24.4711 41.2639 23.1803 46.5637C21.7281 46.0668 20.1145 45.4044 18.6624 45.0731C12.6923 43.4169 6.56084 42.2576 0.429401 42.5889C6.23813 44.245 11.8855 46.3981 17.3715 48.7167C22.8575 51.201 28.0209 53.8509 33.3455 56.6664C38.6702 59.4819 43.9949 62.4631 49.4809 64.9473C52.2239 66.2723 55.1283 67.4316 58.0326 68.2597C60.937 69.0878 64.1641 69.7503 67.2298 69.419C64.3254 68.9222 61.5824 67.7628 59.0007 66.2723Z" fill="#F4A24E"/>
</svg>
