<svg width="102" height="87" viewBox="0 0 102 87" fill="none" xmlns="http://www.w3.org/2000/svg">
<path d="M79.0722 15.5172C78.0649 12.9344 74.9711 9.87579 71.5176 9.24368C70.1106 8.9854 67.9841 9.01939 66.1374 9.12134L65.282 9.16212C61.3008 9.33204 57.3755 9.98454 54.0659 10.6031C45.7518 12.1595 36.3344 13.9199 27.4607 16.4688C26.7572 16.6727 26.0297 16.8766 25.2862 17.0805C20.4576 18.4195 14.9815 19.9352 11.0562 22.9054C8.76986 24.6386 6.95514 27.0651 5.81195 29.9062C4.24505 33.8212 4.01322 38.1644 5.1644 42.127C7.2909 49.488 12.871 50.5415 18.7628 51.6562C19.3944 51.7717 20.0579 51.8941 20.7294 52.03C23.8712 52.6621 27.0689 52.9816 30.2187 52.9816C43.961 52.9816 55.7207 47.0887 66.601 41.0531C70.974 38.6198 74.1637 36.336 76.602 33.8756C81.3826 29.077 81.2867 21.1994 79.0722 15.5172Z" fill="#E4E3DE"/>
<path d="M78.5606 14.4501C77.1216 14.8035 75.6906 15.1638 74.2516 15.5172C59.542 19.1671 49.717 23.5307 36.8221 30.5587C33.3045 32.4754 29.4513 36.0302 28.1722 39.4218C27.061 42.3717 26.5813 44.9273 24.9824 47.714C23.8232 49.7327 21.4889 50.8813 18.9467 51.6902C19.5303 51.7989 20.1218 51.9077 20.7454 52.0368C23.8872 52.6689 27.0849 52.9884 30.2347 52.9884C43.977 52.9884 55.7367 47.0955 66.617 41.0599C70.99 38.6266 74.1797 36.3428 76.618 33.8824C81.3906 29.0838 81.2947 21.1994 79.0802 15.5172C78.9443 15.1638 78.7605 14.8103 78.5606 14.4501Z" fill="#CDCBBF"/>
<path d="M1.67087 22.6063C0.40776 25.0668 -0.159839 28.0574 1.11926 30.5995C2.56624 33.4677 5.89189 33.7464 9.05766 34.3513C16.2046 35.7243 25.6539 38.5178 32.9688 37.1041C37.3817 36.2545 41.6826 33.76 45.5999 31.9181C54.9613 27.5001 64.2027 22.851 73.9079 18.97C76.2023 18.0524 82.4219 16.7746 82.3979 14.0219C82.3899 13.0431 82.3979 12.0644 82.3979 11.0856C82.3979 9.07376 81.9902 6.47056 79.7518 5.34228C78.4567 4.68978 76.8418 4.30236 75.4108 3.91493C73.1324 3.29642 70.8221 2.61673 68.5197 2.08657C61.8124 0.523293 54.6015 -0.23116 47.7104 0.808762C34.9034 2.75267 23.5434 7.4765 13.0309 13.8656C10.001 15.7007 6.85121 17.4611 4.21307 19.7109C2.93398 20.7984 2.15053 21.6752 1.67087 22.6063Z" fill="#FAC11D"/>
<path d="M79.7598 5.33548C79.2881 5.09759 78.7765 4.90728 78.2488 4.72376C79.2881 7.61243 68.4158 10.8206 64.9782 12.112C57.5275 14.9191 42.7139 19.7652 37.0859 24.6998C35.6069 25.998 32.4571 29.7227 31.8416 31.4287C31.0421 33.6105 29.4273 36.5603 25.3342 37.3284C28.0043 37.5663 30.6104 37.5527 32.9848 37.0973C37.3977 36.2477 41.6986 33.7532 45.6159 31.9113C54.9772 27.4933 64.2187 22.8442 73.9239 18.9632C76.2183 18.0456 82.4379 16.7678 82.4139 14.0151C82.4059 13.0363 82.4139 12.0576 82.4139 11.0788C82.4059 9.06696 81.9902 6.46376 79.7598 5.33548Z" fill="#E4A724"/>
<path d="M23.3915 11.575C28.9476 12.1459 33.9521 12.8596 40.6434 14.4433C47.7024 16.1153 50.2366 18.134 51.116 24.2648C52.0113 30.5179 53.4343 39.9995 50.2046 45.9808C49.3652 47.5237 48.1661 49.0734 46.887 50.29C47.8543 50.5075 55.4249 48.2374 58.7586 46.1167C64.2907 42.6027 65.298 38.2052 65.3619 32.6861C65.4259 27.5409 64.8663 18.8545 62.9156 14.3413C61.2688 10.5215 56.8239 9.12814 52.5709 8.00665C49.5171 7.20462 42.7779 5.64814 37.3017 5.19275C33.5204 4.87329 30.2747 5.44423 29.5152 5.66173C27.5806 6.21228 23.8712 7.97947 20.9613 9.45439C18.8507 10.5283 17.084 11.5002 17.084 11.5002C17.084 11.5002 20.0019 11.2284 23.3915 11.575Z" fill="#2F2F2F"/>
<path d="M99.8096 49.2093C98.8023 46.6265 95.7085 43.5679 92.2549 42.9358C90.8479 42.6775 88.7214 42.7115 86.8747 42.8134L86.0193 42.8542C82.0381 43.0242 78.1129 43.6767 74.8033 44.2952C66.4891 45.8517 57.0718 47.612 48.198 50.1609C47.4945 50.3648 46.767 50.5687 46.0236 50.7726C41.195 52.1184 35.7188 53.6341 31.7936 56.6043C29.5072 58.3375 27.6925 60.764 26.5493 63.6051C24.9824 67.5201 24.7506 71.8633 25.9018 75.8259C28.0283 83.1869 33.6003 84.2404 39.5002 85.3551C40.1317 85.4706 40.7953 85.593 41.4668 85.7289C44.6086 86.361 47.8063 86.6805 50.9561 86.6805C64.6984 86.6805 76.4581 80.7876 87.3384 74.752C91.7113 72.3187 94.9011 70.0349 97.3393 67.5745C102.12 62.7691 102.024 54.8915 99.8096 49.2093Z" fill="#E4E3DE"/>
<path d="M99.29 48.1422C97.851 48.4956 96.42 48.8559 94.981 49.2093C80.2714 52.8592 65.1381 56.6859 53.1865 64.8421C50.3165 66.7996 47.5345 69.1785 46.767 72.2371C45.9996 75.2617 47.3107 78.6262 45.7118 81.4129C44.5526 83.4316 42.2183 84.5802 39.676 85.3891C40.2596 85.4978 40.8512 85.6066 41.4748 85.7357C44.6166 86.3678 47.8143 86.6873 50.9641 86.6873C64.7064 86.6873 76.4661 80.7944 87.3464 74.7588C91.7193 72.3255 94.9091 70.0417 97.3473 67.5813C102.12 62.7827 102.024 54.8983 99.8096 49.2161C99.6737 48.8627 99.4978 48.5024 99.29 48.1422Z" fill="#CDCBBF"/>
<path d="M22.3363 58.6841C21.0492 61.9263 22.5441 65.3451 26.933 65.1276C31.9855 64.8829 37.4216 65.012 42.3941 65.8956C45.7278 66.487 48.9735 67.4725 52.2991 68.0434C54.1219 68.3561 56.4002 68.6824 58.3029 68.3289C59.8778 68.0366 61.2688 67.0239 62.6918 66.4122C68.5916 63.8702 74.0998 60.8659 80.0715 58.4463C83.7809 56.9441 87.4344 55.3537 91.1038 53.7904C94.1096 52.5126 98.9702 51.4795 100.433 48.5296C103.775 41.8483 92.9824 36.7031 86.8668 35.4388C80.0636 34.0319 71.8054 33.5493 64.9782 34.9767C59.9577 36.0234 54.9693 37.2808 50.1806 38.98C45.5039 40.6452 41.6986 42.9834 37.5016 45.2603C33.1367 47.6324 28.5479 50.6706 25.2382 54.0895C24.0631 55.3129 23.0318 56.9374 22.3363 58.6841Z" fill="#EC6C30"/>
<path d="M95.8524 39.0344C96.5799 40.0947 96.1482 42.0658 95.2768 43.0174C93.7739 44.6622 88.5775 46.5721 86.7548 47.3809C82.0541 49.454 70.5742 53.0631 67.1846 54.9459C63.3633 57.0597 57.8712 60.3494 54.5056 62.9594C51.7795 65.0732 49.0374 66.2491 45.6798 66.5889C47.8863 67.0987 50.0767 67.6696 52.2991 68.0502C54.1219 68.3629 56.4002 68.6892 58.3029 68.3357C59.8778 68.0434 61.2688 67.0307 62.6918 66.419C68.5916 63.877 74.0997 60.8727 80.0715 58.4531C83.7809 56.9509 87.4343 55.3605 91.1038 53.7972C94.1096 52.5194 98.9702 51.4863 100.433 48.5364C102.344 44.7234 99.6497 41.4133 95.8524 39.0344Z" fill="#D65B29"/>
<path d="M77.6732 36.1253C81.2067 37.3488 83.9328 40.1423 84.6923 43.3232C84.7322 43.4795 84.7642 43.6427 84.7243 43.8058C84.6683 44.0233 84.4604 44.2 84.2366 44.3156C83.4132 44.7166 82.318 44.3631 81.6784 43.765C81.0389 43.1669 80.7191 42.3784 80.2954 41.6512C79.6798 40.5909 78.8244 39.6325 77.7851 38.8509C77.3135 38.4974 76.7859 38.144 76.586 37.641C76.3701 37.1177 76.65 35.9962 77.6732 36.1253ZM63.3074 37.4507C65.7856 39.5781 67.8801 42.025 69.495 44.6826C70.1985 45.8381 70.7661 47.3741 70.4943 48.6588C70.2305 49.9366 69.4151 50.6027 67.9521 50.222C66.9448 49.9841 66.4092 47.2654 65.6097 45.1652C65.1461 43.9485 63.811 41.8279 62.9076 40.8016C62.0043 39.7752 60.7732 38.7149 60.7891 37.4303C60.7252 36.9477 61.7405 36.4856 63.3074 37.4507ZM51.2279 40.6996C52.0673 41.0599 52.5949 41.7056 53.1545 42.3445C53.4823 42.7251 53.7541 43.1397 54.0179 43.5543C56.0645 46.7217 58.175 50.1745 57.5914 53.7496C57.5115 54.239 57.3676 54.742 57.0158 55.143C56.6641 55.5372 56.0565 55.8023 55.4889 55.6799C54.7294 55.4556 54.3137 53.1243 53.7301 51.8533C53.4983 51.3503 53.2665 50.8406 53.0666 50.3308C52.1392 47.9927 51.7955 45.471 50.4205 43.3096C50.0687 42.7523 49.629 42.1745 49.693 41.5492C49.7409 40.9035 50.6363 40.3258 51.2279 40.6996ZM38.0532 47.8839C38.1331 46.7285 39.8839 47.0887 40.2436 47.9451C40.8032 49.2773 41.0431 50.4939 41.9384 51.6834C43.5693 53.838 43.993 55.1362 43.937 57.4879C43.929 57.8889 43.9131 58.3035 43.7132 58.6706C43.2335 59.5542 41.5947 59.7445 40.8512 58.9968C40.1797 58.3239 40.3636 57.3248 40.2356 56.448C40.0838 55.4013 39.4522 54.4633 38.9885 53.4913C38.0852 51.5542 37.6135 49.9366 38.0532 47.8839Z" fill="#F4865C"/>
</svg>
