<svg width="31" height="29" viewBox="0 0 31 29" fill="none" xmlns="http://www.w3.org/2000/svg">
<path d="M19.5241 2.83143C20.3079 1.02852 22.4588 0.291192 24.1466 0.674393L17.9935 12.5986L30.9014 8.93339C30.9421 10.6637 29.7927 12.6256 27.8701 13.0361L16.6261 15.2497L13.9957 20.3454C14.9368 20.619 15.6282 21.2569 15.9359 22.1357C16.2437 23.0146 16.1461 24.072 15.6619 25.1034C15.1777 26.1347 14.3414 27.0669 13.3147 27.7194C12.288 28.3719 11.1439 28.6986 10.1036 28.6361C9.06333 28.5736 8.20084 28.1265 7.68294 27.3812C7.16504 26.6358 7.02853 25.6453 7.29981 24.6011C7.57109 23.557 8.23089 22.5334 9.15159 21.7283C10.0723 20.9232 11.1885 20.3939 12.2843 20.2426L14.1605 15.7335L9.37023 16.6765C9.00462 17.7205 8.26435 18.7095 7.29261 19.4522C6.32087 20.1949 5.18671 20.6385 4.10948 20.6972C3.03224 20.7559 2.08848 20.4256 1.46073 19.7702C0.832986 19.1147 0.565852 18.1806 0.710996 17.1487C0.856142 16.1167 1.40325 15.0601 2.24651 14.1833C3.08978 13.3064 4.16927 12.6717 5.27621 12.4017C6.38315 12.1318 7.43888 12.2459 8.23921 12.7219C9.03954 13.1979 9.52761 14.002 9.60902 14.9788L15.1238 13.4128L19.5241 2.83143ZM6.53483 18.1856C7.1438 17.6876 7.58128 17.0307 7.75103 16.3596C7.92077 15.6884 7.80888 15.058 7.43996 14.6069C7.07104 14.1558 6.47532 13.9211 5.78384 13.9543C5.09237 13.9875 4.36178 14.286 3.75281 14.7841C3.14383 15.2821 2.70635 15.939 2.53661 16.6101C2.36686 17.2812 2.47876 17.9117 2.84768 18.3628C3.2166 18.8138 3.81232 19.0486 4.50379 19.0154C5.19527 18.9821 5.92585 18.6837 6.53483 18.1856ZM13.0262 26.1226C13.6352 25.6245 14.0727 24.9677 14.2424 24.2966C14.4121 23.6254 14.3003 22.995 13.9313 22.5439C13.5624 22.0928 12.9667 21.8581 12.2752 21.8913C11.5837 21.9245 10.8532 22.223 10.2442 22.721C9.63521 23.2191 9.19773 23.8759 9.02798 24.5471C8.85824 25.2182 8.97013 25.8487 9.33905 26.2998C9.70797 26.7508 10.3037 26.9856 10.9952 26.9524C11.6866 26.9191 12.4172 26.6207 13.0262 26.1226Z" fill="white"/>
</svg>
