<svg width="21" height="19" viewBox="0 0 21 19" fill="none" xmlns="http://www.w3.org/2000/svg">
<path fill-rule="evenodd" clip-rule="evenodd" d="M6.17114 0.057C7.29082 0.0103636 7.64782 0 10.5 0C13.3522 0 13.7092 0.0112273 14.8279 0.057C15.9466 0.102773 16.7103 0.264273 17.3785 0.498318C18.0781 0.737545 18.7129 1.1115 19.2379 1.59514C19.7725 2.06927 20.1848 2.64273 20.4483 3.27664C20.7079 3.88118 20.8855 4.57209 20.937 5.58255C20.9885 6.59732 21 6.92032 21 9.5C21 12.0805 20.9876 12.4035 20.937 13.4166C20.8864 14.427 20.7079 15.118 20.4483 15.7225C20.1848 16.3565 19.7718 16.9309 19.2379 17.4057C18.7129 17.8894 18.0781 18.2625 17.3785 18.5008C16.7103 18.7357 15.9466 18.8964 14.8298 18.943C13.7092 18.9896 13.3522 19 10.5 19C7.64782 19 7.29082 18.9888 6.17114 18.943C5.05432 18.8972 4.29068 18.7357 3.6225 18.5008C2.92179 18.2624 2.28692 17.8887 1.76209 17.4057C1.22791 16.9313 0.814528 16.3572 0.550773 15.7234C0.292091 15.1188 0.114545 14.4279 0.063 13.4175C0.0114545 12.4027 0 12.0797 0 9.5C0 6.91945 0.0124091 6.59645 0.063 5.58427C0.113591 4.57209 0.292091 3.88118 0.550773 3.27664C0.814917 2.6428 1.22861 2.06868 1.76305 1.59427C2.28713 1.11107 2.92136 0.737065 3.62155 0.498318C4.28973 0.264273 5.05432 0.103636 6.17114 0.057ZM14.743 1.767C13.6357 1.72123 13.3035 1.71173 10.5 1.71173C7.6965 1.71173 7.36432 1.72123 6.25705 1.767C5.23282 1.80932 4.67727 1.96391 4.30691 2.09432C3.81723 2.26705 3.46691 2.47173 3.09941 2.80423C2.75104 3.11086 2.48294 3.48415 2.31477 3.89673C2.17064 4.23182 1.99977 4.73445 1.953 5.66114C1.90241 6.66295 1.89191 6.9635 1.89191 9.5C1.89191 12.0365 1.90241 12.337 1.953 13.3389C1.99977 14.2655 2.17064 14.7682 2.31477 15.1033C2.48277 15.5152 2.751 15.8892 3.09941 16.1958C3.43827 16.511 3.85159 16.7537 4.30691 16.9057C4.67727 17.0361 5.23282 17.1907 6.25705 17.233C7.36432 17.2788 7.69555 17.2883 10.5 17.2883C13.3045 17.2883 13.6357 17.2788 14.743 17.233C15.7672 17.1907 16.3227 17.0361 16.6931 16.9057C17.1828 16.733 17.5331 16.5283 17.9006 16.1958C18.249 15.8892 18.5172 15.5152 18.6852 15.1033C18.8294 14.7682 19.0002 14.2655 19.047 13.3389C19.0976 12.337 19.1081 12.0365 19.1081 9.5C19.1081 6.9635 19.0976 6.66295 19.047 5.66114C19.0002 4.73445 18.8294 4.23182 18.6852 3.89673C18.4943 3.45368 18.2681 3.13673 17.9006 2.80423C17.5617 2.48906 17.1491 2.2465 16.6931 2.09432C16.3227 1.96391 15.7672 1.80932 14.743 1.767ZM9.15886 12.4286C9.90786 12.7107 10.7419 12.7488 11.5184 12.5363C12.295 12.3239 12.966 11.8741 13.4167 11.2638C13.8675 10.6534 14.0701 9.92048 13.9899 9.19005C13.9097 8.45961 13.5517 7.77702 12.977 7.25886C12.6107 6.92764 12.1678 6.67402 11.6801 6.51626C11.1925 6.35851 10.6722 6.30054 10.1568 6.34653C9.64145 6.39252 9.14374 6.54133 8.69954 6.78225C8.25534 7.02316 7.87571 7.35019 7.58797 7.73978C7.30023 8.12937 7.11154 8.57184 7.03549 9.03533C6.95944 9.49882 6.99792 9.9718 7.14815 10.4202C7.29839 10.8686 7.55664 11.2813 7.90432 11.6286C8.25201 11.9759 8.68047 12.2491 9.15886 12.4286ZM6.68373 6.04718C7.18489 5.59375 7.77985 5.23407 8.43465 4.98868C9.08945 4.74328 9.79125 4.61698 10.5 4.61698C11.2087 4.61698 11.9106 4.74328 12.5654 4.98868C13.2201 5.23407 13.8151 5.59375 14.3163 6.04718C14.8174 6.50061 15.215 7.03891 15.4862 7.63135C15.7574 8.22378 15.897 8.85875 15.897 9.5C15.897 10.1412 15.7574 10.7762 15.4862 11.3687C15.215 11.9611 14.8174 12.4994 14.3163 12.9528C13.3041 13.8686 11.9314 14.383 10.5 14.383C9.06862 14.383 7.69587 13.8686 6.68373 12.9528C5.67159 12.0371 5.10298 10.7951 5.10298 9.5C5.10298 8.20494 5.67159 6.96293 6.68373 6.04718ZM17.094 5.34418C17.2182 5.23819 17.3176 5.11072 17.3864 4.96934C17.4551 4.82796 17.4919 4.67553 17.4944 4.52108C17.4968 4.36662 17.4651 4.21329 17.4009 4.07015C17.3367 3.92702 17.2414 3.79699 17.1207 3.68776C17 3.57854 16.8562 3.49234 16.698 3.43427C16.5398 3.37619 16.3704 3.34743 16.1997 3.34969C16.0289 3.35194 15.8605 3.38516 15.7042 3.44737C15.5479 3.50959 15.4071 3.59955 15.2899 3.71191C15.0621 3.93043 14.9373 4.2207 14.9422 4.52108C14.947 4.82146 15.081 5.1083 15.3158 5.32073C15.5506 5.53315 15.8677 5.65442 16.1997 5.6588C16.5317 5.66318 16.8525 5.55032 17.094 5.34418Z" fill="#EA5A27"/>
</svg>
