<svg width="22" height="21" viewBox="0 0 22 21" fill="none" xmlns="http://www.w3.org/2000/svg">
<path d="M11 18.9C13.3339 18.9 15.5722 18.015 17.2225 16.4397C18.8729 14.8644 19.8 12.7278 19.8 10.5C19.8 8.27218 18.8729 6.13561 17.2225 4.5603C15.5722 2.985 13.3339 2.1 11 2.1C8.66609 2.1 6.42778 2.985 4.77746 4.5603C3.12714 6.13561 2.2 8.27218 2.2 10.5C2.2 12.7278 3.12714 14.8644 4.77746 16.4397C6.42778 18.015 8.66609 18.9 11 18.9ZM11 21C4.9247 21 0 16.2991 0 10.5C0 4.70085 4.9247 0 11 0C17.0753 0 22 4.70085 22 10.5C22 16.2991 17.0753 21 11 21ZM7.579 11.7285L4.8312 10.9105C4.2372 10.7373 4.2339 10.3467 4.9643 10.0663L15.6706 6.11835C16.2921 5.87685 16.6441 6.1824 16.4428 6.94785L14.6201 15.1588C14.4925 15.7437 14.124 15.8834 13.6125 15.6135L10.8064 13.6311L9.4985 14.8365C9.3643 14.9604 9.2554 15.0665 9.0486 15.0927C8.8429 15.12 8.6735 15.0612 8.5492 14.7357L7.5922 11.7211L7.579 11.7285Z" fill="#EA5A27"/>
</svg>
