<svg width="40" height="32" viewBox="0 0 40 32" fill="none" xmlns="http://www.w3.org/2000/svg">
<mask id="path-1-inside-1_2_13" fill="white">
<path d="M8.68039 0.0541427C8.62397 0.0533574 8.56823 0.0640801 8.5182 0.0853449C8.46817 0.10661 8.42542 0.137749 8.3938 0.175955C8.36218 0.214162 8.34268 0.258236 8.33706 0.304207C8.33145 0.350178 8.33989 0.3966 8.36162 0.439291L8.55477 0.818654L11.9731 7.44904C11.9964 7.49414 12.0337 7.53346 12.0813 7.56306C12.1289 7.59265 12.1852 7.61148 12.2444 7.61765C12.3037 7.62381 12.3638 7.6171 12.4188 7.59818C12.4738 7.57926 12.5217 7.54881 12.5577 7.50987L18.9894 0.565617C19.0276 0.524476 19.051 0.475416 19.057 0.423934C19.063 0.372451 19.0514 0.320581 19.0234 0.274134C18.9955 0.227687 18.9523 0.188499 18.8987 0.160961C18.8452 0.133423 18.7834 0.118623 18.7202 0.11822L8.68039 0.0541427ZM34.0243 2.03064L30.4716 8.7189C30.4493 8.76113 30.4401 8.80726 30.4448 8.85317C30.4496 8.89907 30.4682 8.94332 30.499 8.98195C30.5297 9.02058 30.5717 9.05239 30.6211 9.07452C30.6705 9.09665 30.7258 9.10842 30.782 9.10876L39.3696 9.16357C39.4302 9.16398 39.4899 9.1511 39.5423 9.12628C39.5947 9.10145 39.6381 9.06558 39.6679 9.02237C39.6976 8.97916 39.7127 8.9302 39.7116 8.88054C39.7104 8.83088 39.6931 8.78234 39.6614 8.73995L34.6257 1.99757C34.5931 1.95416 34.5467 1.91885 34.4915 1.89547C34.4362 1.87208 34.3742 1.86152 34.3123 1.86493C34.2503 1.86834 34.1907 1.88559 34.1399 1.9148C34.0892 1.94401 34.0492 1.98407 34.0243 2.03064ZM5.54689 1.81477L0.427202 8.48954C0.394946 8.53153 0.377005 8.57984 0.375238 8.62948C0.37347 8.67912 0.387939 8.72828 0.417147 8.77186C0.446356 8.81544 0.48924 8.85187 0.541359 8.87736C0.593478 8.90285 0.652936 8.91649 0.713574 8.91686L9.30116 8.97166C9.35744 8.97197 9.41289 8.96083 9.46256 8.93925C9.51222 8.91766 9.55453 8.88631 9.58571 8.848C9.61688 8.80968 9.63593 8.76561 9.64117 8.71973C9.6464 8.67384 9.63764 8.62758 9.61568 8.5851L6.14183 1.85547C6.11697 1.80975 6.07756 1.77032 6.02773 1.74132C5.9779 1.71232 5.9195 1.69482 5.85864 1.69066C5.79779 1.68649 5.73673 1.69582 5.68188 1.71766C5.62702 1.7395 5.58039 1.77304 5.54689 1.81477ZM21.1026 0.133426C21.0718 0.133066 21.0416 0.139766 21.0153 0.152767C20.9889 0.165769 20.9676 0.184553 20.9536 0.206996C20.9397 0.229439 20.9337 0.254646 20.9364 0.279766C20.939 0.304886 20.9502 0.328917 20.9686 0.349142L27.7165 7.80578C27.7338 7.82494 27.7568 7.84005 27.7834 7.84958C27.81 7.85912 27.8392 7.86276 27.868 7.86011C27.8968 7.85747 27.9243 7.84865 27.9476 7.83454C27.9709 7.82043 27.9892 7.80153 28.0007 7.77974L31.6222 0.966574L31.915 0.387669C31.9253 0.3678 31.9296 0.346167 31.9275 0.324623C31.9253 0.303079 31.9168 0.282266 31.9027 0.263966C31.8887 0.245667 31.8694 0.230427 31.8465 0.219551C31.8237 0.208675 31.798 0.202488 31.7716 0.201519L21.1026 0.133426ZM18.4673 29.0857L10.9761 11.3855C10.9541 11.3341 10.9132 11.2895 10.8591 11.2579C10.8049 11.2262 10.7402 11.2091 10.6737 11.2088L0.445125 11.1435C0.385874 11.143 0.327679 11.1561 0.277172 11.1814C0.226665 11.2067 0.185877 11.2431 0.159455 11.2865C0.133034 11.3298 0.122041 11.3785 0.127731 11.4268C0.13342 11.4751 0.155562 11.5212 0.191633 11.5597L18.4328 31.1613C18.4946 31.2277 18.583 31.274 18.6823 31.2921C18.7817 31.3102 18.8855 31.2989 18.9755 31.2602C19.066 31.2219 19.1366 31.1582 19.1744 31.0807C19.2122 31.0032 19.2147 30.9171 19.1814 30.8381L18.4673 29.0857ZM39.6079 11.3935L29.3793 11.3282C29.3132 11.3278 29.2486 11.3442 29.1945 11.3751C29.1404 11.4061 29.0994 11.4501 29.0772 11.5011L20.6041 30.8173C20.5685 30.8984 20.5694 30.9873 20.6066 31.068C20.6438 31.1488 20.7148 31.2161 20.807 31.258C20.8993 31.2996 21.0065 31.3131 21.1095 31.296C21.2126 31.2789 21.3048 31.2324 21.3697 31.1648L39.8561 11.8129C39.8926 11.7748 39.9154 11.729 39.9217 11.6808C39.928 11.6325 39.9176 11.5838 39.8917 11.54C39.8659 11.4963 39.8255 11.4594 39.7754 11.4335C39.7252 11.4076 39.6672 11.3937 39.6079 11.3935ZM20.3488 3.39669L25.0771 8.62667C25.1147 8.6683 25.1375 8.71765 25.1428 8.76921C25.1482 8.82076 25.1359 8.87248 25.1073 8.91857C25.0788 8.96465 25.0351 9.00329 24.9812 9.03014C24.9273 9.05699 24.8653 9.071 24.8022 9.0706L15.2793 9.00982C15.2161 9.00942 15.1543 8.99462 15.1008 8.96708C15.0472 8.93954 15.004 8.90035 14.9761 8.85391C14.9481 8.80746 14.9365 8.75559 14.9425 8.7041C14.9485 8.65262 14.9719 8.60356 15.0101 8.56242L19.8047 3.39321C19.8366 3.35882 19.8778 3.33101 19.9252 3.31197C19.9725 3.29293 20.0247 3.2832 20.0775 3.28354C20.1303 3.28387 20.1823 3.29427 20.2294 3.31391C20.2765 3.33355 20.3174 3.36189 20.3488 3.39669ZM19.6158 25.0011L13.9448 11.6009C13.927 11.5587 13.9218 11.5138 13.9296 11.4697C13.9373 11.4257 13.9579 11.3838 13.9895 11.3477C14.0211 11.3115 14.0629 11.2821 14.1113 11.262C14.1597 11.2418 14.2134 11.2314 14.2677 11.2318L25.7853 11.3053C25.8397 11.3056 25.8932 11.3167 25.9413 11.3375C25.9895 11.3583 26.0308 11.3882 26.062 11.4247C26.0932 11.4613 26.1132 11.5034 26.1204 11.5475C26.1276 11.5917 26.1218 11.6366 26.1035 11.6785L20.2594 25.0052C20.2356 25.0593 20.1918 25.106 20.1342 25.1389C20.0766 25.1717 20.0079 25.1891 19.9377 25.1886C19.8674 25.1882 19.799 25.1699 19.7418 25.1363C19.6846 25.1028 19.6414 25.0555 19.6183 25.0011L19.6158 25.0011Z"/>
</mask>
<path d="M8.68039 0.0541427C8.62397 0.0533574 8.56823 0.0640801 8.5182 0.0853449C8.46817 0.10661 8.42542 0.137749 8.3938 0.175955C8.36218 0.214162 8.34268 0.258236 8.33706 0.304207C8.33145 0.350178 8.33989 0.3966 8.36162 0.439291L8.55477 0.818654L11.9731 7.44904C11.9964 7.49414 12.0337 7.53346 12.0813 7.56306C12.1289 7.59265 12.1852 7.61148 12.2444 7.61765C12.3037 7.62381 12.3638 7.6171 12.4188 7.59818C12.4738 7.57926 12.5217 7.54881 12.5577 7.50987L18.9894 0.565617C19.0276 0.524476 19.051 0.475416 19.057 0.423934C19.063 0.372451 19.0514 0.320581 19.0234 0.274134C18.9955 0.227687 18.9523 0.188499 18.8987 0.160961C18.8452 0.133423 18.7834 0.118623 18.7202 0.11822L8.68039 0.0541427ZM34.0243 2.03064L30.4716 8.7189C30.4493 8.76113 30.4401 8.80726 30.4448 8.85317C30.4496 8.89907 30.4682 8.94332 30.499 8.98195C30.5297 9.02058 30.5717 9.05239 30.6211 9.07452C30.6705 9.09665 30.7258 9.10842 30.782 9.10876L39.3696 9.16357C39.4302 9.16398 39.4899 9.1511 39.5423 9.12628C39.5947 9.10145 39.6381 9.06558 39.6679 9.02237C39.6976 8.97916 39.7127 8.9302 39.7116 8.88054C39.7104 8.83088 39.6931 8.78234 39.6614 8.73995L34.6257 1.99757C34.5931 1.95416 34.5467 1.91885 34.4915 1.89547C34.4362 1.87208 34.3742 1.86152 34.3123 1.86493C34.2503 1.86834 34.1907 1.88559 34.1399 1.9148C34.0892 1.94401 34.0492 1.98407 34.0243 2.03064ZM5.54689 1.81477L0.427202 8.48954C0.394946 8.53153 0.377005 8.57984 0.375238 8.62948C0.37347 8.67912 0.387939 8.72828 0.417147 8.77186C0.446356 8.81544 0.48924 8.85187 0.541359 8.87736C0.593478 8.90285 0.652936 8.91649 0.713574 8.91686L9.30116 8.97166C9.35744 8.97197 9.41289 8.96083 9.46256 8.93925C9.51222 8.91766 9.55453 8.88631 9.58571 8.848C9.61688 8.80968 9.63593 8.76561 9.64117 8.71973C9.6464 8.67384 9.63764 8.62758 9.61568 8.5851L6.14183 1.85547C6.11697 1.80975 6.07756 1.77032 6.02773 1.74132C5.9779 1.71232 5.9195 1.69482 5.85864 1.69066C5.79779 1.68649 5.73673 1.69582 5.68188 1.71766C5.62702 1.7395 5.58039 1.77304 5.54689 1.81477ZM21.1026 0.133426C21.0718 0.133066 21.0416 0.139766 21.0153 0.152767C20.9889 0.165769 20.9676 0.184553 20.9536 0.206996C20.9397 0.229439 20.9337 0.254646 20.9364 0.279766C20.939 0.304886 20.9502 0.328917 20.9686 0.349142L27.7165 7.80578C27.7338 7.82494 27.7568 7.84005 27.7834 7.84958C27.81 7.85912 27.8392 7.86276 27.868 7.86011C27.8968 7.85747 27.9243 7.84865 27.9476 7.83454C27.9709 7.82043 27.9892 7.80153 28.0007 7.77974L31.6222 0.966574L31.915 0.387669C31.9253 0.3678 31.9296 0.346167 31.9275 0.324623C31.9253 0.303079 31.9168 0.282266 31.9027 0.263966C31.8887 0.245667 31.8694 0.230427 31.8465 0.219551C31.8237 0.208675 31.798 0.202488 31.7716 0.201519L21.1026 0.133426ZM18.4673 29.0857L10.9761 11.3855C10.9541 11.3341 10.9132 11.2895 10.8591 11.2579C10.8049 11.2262 10.7402 11.2091 10.6737 11.2088L0.445125 11.1435C0.385874 11.143 0.327679 11.1561 0.277172 11.1814C0.226665 11.2067 0.185877 11.2431 0.159455 11.2865C0.133034 11.3298 0.122041 11.3785 0.127731 11.4268C0.13342 11.4751 0.155562 11.5212 0.191633 11.5597L18.4328 31.1613C18.4946 31.2277 18.583 31.274 18.6823 31.2921C18.7817 31.3102 18.8855 31.2989 18.9755 31.2602C19.066 31.2219 19.1366 31.1582 19.1744 31.0807C19.2122 31.0032 19.2147 30.9171 19.1814 30.8381L18.4673 29.0857ZM39.6079 11.3935L29.3793 11.3282C29.3132 11.3278 29.2486 11.3442 29.1945 11.3751C29.1404 11.4061 29.0994 11.4501 29.0772 11.5011L20.6041 30.8173C20.5685 30.8984 20.5694 30.9873 20.6066 31.068C20.6438 31.1488 20.7148 31.2161 20.807 31.258C20.8993 31.2996 21.0065 31.3131 21.1095 31.296C21.2126 31.2789 21.3048 31.2324 21.3697 31.1648L39.8561 11.8129C39.8926 11.7748 39.9154 11.729 39.9217 11.6808C39.928 11.6325 39.9176 11.5838 39.8917 11.54C39.8659 11.4963 39.8255 11.4594 39.7754 11.4335C39.7252 11.4076 39.6672 11.3937 39.6079 11.3935ZM20.3488 3.39669L25.0771 8.62667C25.1147 8.6683 25.1375 8.71765 25.1428 8.76921C25.1482 8.82076 25.1359 8.87248 25.1073 8.91857C25.0788 8.96465 25.0351 9.00329 24.9812 9.03014C24.9273 9.05699 24.8653 9.071 24.8022 9.0706L15.2793 9.00982C15.2161 9.00942 15.1543 8.99462 15.1008 8.96708C15.0472 8.93954 15.004 8.90035 14.9761 8.85391C14.9481 8.80746 14.9365 8.75559 14.9425 8.7041C14.9485 8.65262 14.9719 8.60356 15.0101 8.56242L19.8047 3.39321C19.8366 3.35882 19.8778 3.33101 19.9252 3.31197C19.9725 3.29293 20.0247 3.2832 20.0775 3.28354C20.1303 3.28387 20.1823 3.29427 20.2294 3.31391C20.2765 3.33355 20.3174 3.36189 20.3488 3.39669ZM19.6158 25.0011L13.9448 11.6009C13.927 11.5587 13.9218 11.5138 13.9296 11.4697C13.9373 11.4257 13.9579 11.3838 13.9895 11.3477C14.0211 11.3115 14.0629 11.2821 14.1113 11.262C14.1597 11.2418 14.2134 11.2314 14.2677 11.2318L25.7853 11.3053C25.8397 11.3056 25.8932 11.3167 25.9413 11.3375C25.9895 11.3583 26.0308 11.3882 26.062 11.4247C26.0932 11.4613 26.1132 11.5034 26.1204 11.5475C26.1276 11.5917 26.1218 11.6366 26.1035 11.6785L20.2594 25.0052C20.2356 25.0593 20.1918 25.106 20.1342 25.1389C20.0766 25.1717 20.0079 25.1891 19.9377 25.1886C19.8674 25.1882 19.799 25.1699 19.7418 25.1363C19.6846 25.1028 19.6414 25.0555 19.6183 25.0011L19.6158 25.0011Z" fill="#189EBC" stroke="#FFFEFE" stroke-width="2" mask="url(#path-1-inside-1_2_13)"/>
</svg>
